<?xml version="1.0" standalone="no"?>
<!DOCTYPE svg PUBLIC "-//W3C//DTD SVG 20010904//EN"
 "http://www.w3.org/TR/2001/REC-SVG-20010904/DTD/svg10.dtd">
<svg version="1.0" xmlns="http://www.w3.org/2000/svg"
 width="512.000000pt" height="512.000000pt" viewBox="0 0 512.000000 512.000000"
 preserveAspectRatio="xMidYMid meet">

<g transform="translate(0.000000,512.000000) scale(0.100000,-0.100000)"
fill="#000000" stroke="none">
<path d="M650 5105 c-337 -68 -587 -329 -639 -665 -9 -56 -11 -550 -9 -1925 3
-2021 -1 -1859 58 -2017 66 -177 261 -372 438 -438 157 -59 2 -55 2062 -55
2060 0 1905 -4 2062 55 178 66 372 260 438 438 59 157 55 2 55 2062 0 1729 -1
1890 -17 1945 -29 106 -58 172 -107 247 -114 174 -261 279 -481 346 -50 16
-208 17 -1925 19 -1515 1 -1882 -1 -1935 -12z m3842 -427 c91 -45 147 -103
191 -196 l32 -67 0 -1855 0 -1855 -32 -67 c-44 -93 -100 -151 -191 -196 l-76
-37 -1855 0 -1856 0 -67 32 c-93 44 -151 100 -196 191 l-37 76 0 1855 0 1856
32 67 c17 37 50 87 72 111 44 48 135 101 197 116 23 5 789 8 1875 8 l1835 -2
76 -37z"/>
</g>
</svg>
